# File created by Blade
# Date/Time:  Thu Jan 22 18:06:37 2015
#---------------------------------------------------------
:version 1.10
:name HOM
:units
  mass 1.0
  length 1.000000
  angle deg
:documentation
     Acclaim Skeleton File
:root
   axis xyz
   order TX TY TZ RX RY RZ
   position 0.000000 0.000000 0.000000
   orientation 0 0 0
:bonedata
   begin
      id 1
      name RightUpLeg_dum
      direction -1.000000 0.000000 0.000000
      length 4.478084
      axis 0.0 0.0 0.0 xyz
   end
   begin
      id 2
      name LeftUpLeg_dum
      direction 1.000000 0.000000 0.000000
      length 4.478084
      axis 0.0 0.0 0.0 xyz
   end
   begin
      id 3
      name Spine_dum
      direction 0.000000 1.000000 0.000000
      length 6.068208
      axis 0.0 0.0 0.0 xyz
   end
   begin
      id 4
      name RightUpLeg
      direction 0.000000 -1.000000 0.000000
      length 16.405774
      axis 0.0 0.0 0.0 xyz
      dof rx ry rz
   end
   begin
      id 5
      name RightLeg
      direction 0.000000 -1.000000 0.000000
      length 14.644143
      axis 0.0 0.0 0.0 xyz
      dof rx ry rz
   end
   begin
      id 6
      name RightFoot
      direction 0.000000 -0.258819 0.965926
      length 5.806150
      axis 15.0 0.0 0.0 xyz
      dof rx ry rz
   end
   begin
      id 7
      name RightToeBase
      direction 0.000000 0.000000 1.000000
      length 2.952750
      axis 0.0 0.0 0.0 xyz
      dof rx ry rz
   end
   begin
      id 8
      name LeftUpLeg
      direction 0.000000 -1.000000 0.000000
      length 16.405774
      axis 0.0 0.0 0.0 xyz
      dof rx ry rz
   end
   begin
      id 9
      name LeftLeg
      direction 0.000000 -1.000000 0.000000
      length 14.644143
      axis 0.0 0.0 0.0 xyz
      dof rx ry rz
   end
   begin
      id 10
      name LeftFoot
      direction 0.000000 -0.258819 0.965926
      length 5.806150
      axis 15.0 0.0 0.0 xyz
      dof rx ry rz
   end
   begin
      id 11
      name LeftToeBase
      direction 0.000000 0.000000 1.000000
      length 2.952750
      axis 0.0 0.0 0.0 xyz
      dof rx ry rz
   end
   begin
      id 12
      name Spine
      direction 0.000000 1.000000 0.000000
      length 0.000000
      axis 0.0 0.0 0.0 xyz
      dof rx ry rz
   end
   begin
      id 13
      name Spine_dum1
      direction 0.000000 1.000000 0.000000
      length 10.013923
      axis 0.0 0.0 0.0 xyz
   end
   begin
      id 14
      name Spine_dum2
      direction 0.000000 1.000000 0.000000
      length 10.013923
      axis 0.0 0.0 0.0 xyz
   end
   begin
      id 15
      name Spine_dum3
      direction 0.000000 1.000000 0.000000
      length 15.777476
      axis 0.0 0.0 0.0 xyz
   end
   begin
      id 16
      name RightShoulder
      direction -1.000000 0.000000 0.000000
      length 7.190220
      axis 0.0 0.0 90.0 xyz
      dof rx ry rz
   end
   begin
      id 17
      name RightArm
      direction -1.000000 0.000000 0.000000
      length 10.177469
      axis 0.0 0.0 90.0 xyz
      dof rx ry rz
   end
   begin
      id 18
      name RightForeArm
      direction -1.000000 0.000000 0.000000
      length 8.392114
      axis 0.0 0.0 90.0 xyz
      dof ry rz rx
   end
   begin
      id 19
      name RightHand
      direction -1.000000 0.000000 0.000000
      length 0.000000
      axis 0.0 0.0 90.0 xyz
      dof rx ry rz
   end
   begin
      id 20
      name RightHand_dum1
      direction -1.000000 0.000000 0.000000
      length 3.937000
      axis 0.0 0.0 90.0 xyz
   end
   begin
      id 21
      name RightHand_dum2
      direction 0.000000 0.000000 0.000000
      length 0.000000
      axis 0.0 0.0 90.0 xyz
   end
   begin
      id 22
      name RightHandThumb1
      direction 0.000000 0.000000 1.000000
      length 3.937000
      axis 0.0 0.0 90.0 xyz
      dof rx rz ry
   end
   begin
      id 23
      name LeftShoulder
      direction 1.000000 0.000000 0.000000
      length 7.190220
      axis 0.0 0.0 -90.0 xyz
      dof rx ry rz
   end
   begin
      id 24
      name LeftArm
      direction 1.000000 0.000000 0.000000
      length 10.177469
      axis 0.0 0.0 -90.0 xyz
      dof rx ry rz
   end
   begin
      id 25
      name LeftForeArm
      direction 1.000000 0.000000 0.000000
      length 8.392114
      axis 0.0 0.0 -90.0 xyz
      dof ry rz rx
   end
   begin
      id 26
      name LeftHand
      direction 1.000000 0.000000 0.000000
      length 0.000000
      axis 0.0 0.0 -90.0 xyz
      dof rx ry rz
   end
   begin
      id 27
      name LeftHand_dum1
      direction 1.000000 0.000000 0.000000
      length 3.937000
      axis 0.0 0.0 -90.0 xyz
   end
   begin
      id 28
      name LeftHand_dum2
      direction 0.000000 0.000000 0.000000
      length 0.000000
      axis 0.0 0.0 -90.0 xyz
   end
   begin
      id 29
      name LeftHandThumb1
      direction 0.000000 0.000000 1.000000
      length 3.937000
      axis 0.0 0.0 -90.0 xyz
      dof rx rz ry
   end
   begin
      id 30
      name Head
      direction 0.000000 1.000000 0.000000
      length 4.527550
      axis 0.0 0.0 0.0 xyz
      dof rx ry rz
   end
:hierarchy
   begin
      root RightUpLeg_dum LeftUpLeg_dum Spine_dum
      RightUpLeg_dum RightUpLeg
      LeftUpLeg_dum LeftUpLeg
      Spine_dum Spine
      RightUpLeg RightLeg
      RightLeg RightFoot
      RightFoot RightToeBase
      LeftUpLeg LeftLeg
      LeftLeg LeftFoot
      LeftFoot LeftToeBase
      Spine Spine_dum1 Spine_dum2 Spine_dum3
      Spine_dum1 RightShoulder
      Spine_dum2 LeftShoulder
      Spine_dum3 Head
      RightShoulder RightArm
      RightArm RightForeArm
      RightForeArm RightHand
      RightHand RightHand_dum1 RightHand_dum2
      RightHand_dum2 RightHandThumb1
      LeftShoulder LeftArm
      LeftArm LeftForeArm
      LeftForeArm LeftHand
      LeftHand LeftHand_dum1 LeftHand_dum2
      LeftHand_dum2 LeftHandThumb1
   end

# File created by Blade
# Date/Time:  Thu Jan 22 18:06:27 2015
# Frame Rate: 120.000 fps
#------------------------------------------------------
:FULLY-SPECIFIED
:DEGREES
512
root 0.898966 32.877942 -2.400193 10.340535 27.767227 5.016854
RightUpLeg -20.578467 28.404641 -5.206182
RightLeg 53.237400 -0.000000 -0.000000
RightFoot -25.868273 -13.839690 -0.581796
RightToeBase -19.083891 -0.000000 0.000000
LeftUpLeg -1.713957 -16.614632 -9.919233
LeftLeg -2.354346 -0.000000 0.000000
LeftFoot -3.767346 -8.967570 -5.031306
LeftToeBase 11.311409 -0.000000 -0.000000
Spine -10.185983 -13.183137 -3.550294
RightShoulder -21.555195 -20.657491 -21.958848
RightArm 13.485688 27.830013 49.568304
RightForeArm -8.752078 -0.000000 14.393633
RightHand 6.329874 -0.000000 11.820633
RightHandThumb1 -24.326973 -0.000000 -32.862282
LeftShoulder -20.655275 0.533227 25.503571
LeftArm 34.883317 -23.043926 -59.370201
LeftForeArm 3.988734 0.000000 40.467032
LeftHand 0.820831 -0.000000 36.722768
LeftHandThumb1 -26.253704 0.000000 33.147579
Head 16.324897 1.119728 -2.846726
513
root 0.906252 32.875457 -2.395772 10.292544 27.843104 5.037281
RightUpLeg -20.667520 28.386674 -5.167268
RightLeg 53.974958 -0.000000 -0.000000
RightFoot -25.864130 -13.835839 -0.447384
RightToeBase -18.943667 -0.000000 0.000000
LeftUpLeg -1.648078 -16.643678 -9.954783
LeftLeg -2.328474 -0.000000 0.000000
LeftFoot -3.787614 -9.006011 -5.016085
LeftToeBase 11.305524 -0.000000 -0.000000
Spine -10.164027 -13.225754 -3.561629
RightShoulder -21.579002 -20.680540 -21.945732
RightArm 13.523745 27.814899 49.624441
RightForeArm -8.773566 0.000000 14.340798
RightHand 6.340052 -0.000000 11.783919
RightHandThumb1 -24.326973 -0.000000 -32.862282
LeftShoulder -20.664447 0.521799 25.489507
LeftArm 34.809531 -23.059204 -59.328433
LeftForeArm 4.084949 0.000000 40.480264
LeftHand 0.268124 -0.000000 37.376893
LeftHandThumb1 -26.253704 0.000000 33.147579
Head 16.344775 1.118536 -2.881710
514
root 0.913493 32.873941 -2.390910 10.257622 27.907190 5.056582
RightUpLeg -20.770054 28.354325 -5.134834
RightLeg 54.697000 -0.000000 -0.000000
RightFoot -25.808351 -13.843575 -0.410117
RightToeBase -18.887601 -0.000000 0.000000
LeftUpLeg -1.596385 -16.659329 -9.987749
LeftLeg -2.300634 -0.000000 0.000000
LeftFoot -3.794944 -9.048522 -4.983921
LeftToeBase 11.242974 -0.000000 -0.000000
Spine -10.161547 -13.242925 -3.573545
RightShoulder -21.601700 -20.711503 -21.926931
RightArm 13.529928 27.804647 49.651452
RightForeArm -8.883436 -0.000000 14.337309
RightHand 6.396172 -0.000000 12.010834
RightHandThumb1 -24.326973 -0.000000 -32.862282
LeftShoulder -20.675361 0.532618 25.466612
LeftArm 34.756188 -23.098753 -59.313598
LeftForeArm 4.192146 -0.000000 40.496693
LeftHand 0.379401 -0.000000 37.126424
LeftHandThumb1 -26.253704 0.000000 33.147579
Head 16.366692 1.081967 -2.918043
515
root 0.920711 32.872639 -2.386979 10.223614 27.972496 5.073967
RightUpLeg -20.862723 28.308595 -5.099427
RightLeg 55.387683 -0.000000 -0.000000
RightFoot -25.751116 -13.837147 -0.378237
RightToeBase -18.806546 -0.000000 0.000000
LeftUpLeg -1.548157 -16.682655 -10.014371
LeftLeg -2.275022 -0.000000 0.000000
LeftFoot -3.808792 -9.092344 -4.957674
LeftToeBase 11.171627 -0.000000 -0.000000
Spine -10.156800 -13.270383 -3.580327
RightShoulder -21.615740 -20.750155 -21.903017
RightArm 13.568106 27.749568 49.675942
RightForeArm -8.746531 -0.000000 14.257734
RightHand 6.298547 -0.000000 11.978489
RightHandThumb1 -24.326973 -0.000000 -32.862282
LeftShoulder -20.672154 0.484944 25.464136
LeftArm 34.592951 -23.055750 -59.190590
LeftForeArm 3.984079 0.000000 40.563358
LeftHand 0.265754 -0.000000 37.333752
LeftHandThumb1 -26.253704 0.000000 33.147579
Head 16.387775 1.077788 -2.952658
